PathFileType   4   (X/Y/Z)
DataRate	CameraRate	NumFrames	NumMarkers	Units	OrigDataRate	OrigDataStartFrame	OrigNumFrames
120.0	120.0	9	37	mm	120.0	70	111
Frame#	Time	midhip	hip_r	hip_l	knee_r	knee_l	ankle_r	ankle_l	midasis	asis_r	asis_l	psis_r	psis_l	epicondLat_r	epicondLat_l	epicondMed_r	epicondMed_l	malleolusLat_r	malleolusLat_l	malleolusMedv_r	malleolusMedv_l	neck	subclavicle_r	subclavicle_l	sternalnotch	xyphoidprocess	thighwand_r	thighwand_l	upperleg1_r	upperleg1_l	upperleg2_r	upperleg2_l	shankwand_r	shankwand_l	lowerleg1_r	lowerleg1_l	toe_r	toe_l
 	 	X1	Y1	Z1	X2	Y2	Z2	X3	Y3	Z3	X4	Y4	Z4	X5	Y5	Z5	X6	Y6	Z6	X7	Y7	Z7	X8	Y8	Z8	X9	Y9	Z9	X10	Y10	Z10	X11	Y11	Z11	X12	Y12	Z12	X13	Y13	Z13	X14	Y14	Z14	X15	Y15	Z15	X16	Y16	Z16	X17	Y17	Z17	X18	Y18	Z18	X19	Y19	Z19	X20	Y20	Z20	X21	Y21	Z21	X22	Y22	Z22	X23	Y23	Z23	X24	Y24	Z24	X25	Y25	Z25	X26	Y26	Z26	X27	Y27	Z27	X28	Y28	Z28	X29	Y29	Z29	X30	Y30	Z30	X31	Y31	Z31	X32	Y32	Z32	X33	Y33	Z33	X34	Y34	Z34	X35	Y35	Z35	X36	Y36	Z36	X37	Y37	Z37

	70	0.66667	1372.096	622.041	-264.129	1376.014	633.434	-208.885	1378.510	635.150	-326.291	1441.370	342.464	-216.118	1405.553	335.701	-337.469	1401.046	54.531	-215.566	1186.080	154.896	-324.898	1420.748	696.786	-265.750	1418.839	695.473	-175.958	1422.657	698.098	-355.542	1282.984	713.940	-222.032	1286.523	710.991	-307.565	1439.486	340.899	-170.183	1396.501	336.643	-384.599	1431.978	342.512	-256.186	1432.820	325.543	-301.548	1400.501	54.671	-182.071	1173.814	167.898	-352.042	1403.855	55.351	-242.611	1190.779	156.639	-290.072	1349.307	1035.183	-246.054	1437.829	958.409	-205.809	1437.792	965.583	-294.360	1423.890	974.898	-241.250	1458.714	838.411	-257.521	1540.476	454.090	-232.930	1446.803	422.111	-452.188	1459.837	489.459	-180.614	1456.889	472.571	-368.583	1464.194	401.630	-183.275	1466.769	389.001	-357.120	1444.103	126.069	-117.847	1327.925	145.534	-333.716	1432.964	194.892	-174.633	1331.029	229.156	-340.082	1491.348	39.729	-214.071	1209.634	75.390	-336.080
	71	0.67500	1380.362	623.525	-263.926	1384.076	634.551	-208.431	1387.233	636.984	-325.809	1444.301	342.275	-215.734	1422.640	338.174	-338.512	1401.427	54.609	-215.569	1208.044	153.373	-323.929	1429.189	698.206	-264.655	1426.774	696.344	-174.860	1431.604	700.068	-354.449	1291.289	715.295	-221.956	1295.335	712.725	-307.517	1442.070	340.668	-169.816	1413.835	339.136	-385.688	1434.131	342.884	-255.929	1449.590	328.683	-303.398	1400.656	54.743	-182.078	1195.030	166.371	-350.723	1404.099	55.471	-242.667	1213.365	154.722	-289.154	1358.071	1036.426	-245.023	1446.837	959.485	-205.704	1446.061	966.763	-294.246	1432.590	976.065	-241.005	1467.123	839.520	-257.733	1544.992	451.914	-231.584	1462.498	426.258	-453.324	1465.309	489.181	-179.947	1471.130	476.653	-369.362	1467.416	400.815	-182.733	1482.608	393.090	-358.356	1444.437	125.794	-117.604	1349.492	146.756	-335.305	1434.134	194.715	-174.361	1350.969	230.309	-340.953	1491.399	39.658	-214.084	1234.061	75.155	-337.043
	72	0.68333	1388.691	624.839	-263.682	1392.131	635.542	-207.936	1395.881	638.599	-325.282	1447.191	342.082	-215.404	1439.462	340.576	-339.454	1401.793	54.711	-215.567	1230.485	151.155	-323.165	1437.577	699.459	-263.591	1434.708	697.119	-173.810	1440.447	701.798	-353.371	1299.543	716.502	-221.930	1304.167	714.241	-307.459	1444.640	340.435	-169.504	1430.992	341.584	-386.690	1435.696	343.549	-255.489	1466.353	331.700	-305.208	1400.833	54.844	-182.081	1216.719	164.066	-349.623	1404.346	55.553	-242.735	1236.398	152.231	-288.442	1366.825	1037.572	-244.066	1455.801	960.435	-205.567	1454.385	967.697	-294.019	1441.295	977.071	-240.777	1475.484	840.424	-257.687	1549.413	449.712	-230.337	1478.183	430.353	-454.300	1471.232	489.010	-179.147	1485.053	480.625	-370.020	1470.595	399.941	-182.120	1498.342	397.148	-359.469	1444.847	125.536	-117.411	1371.441	147.839	-336.858	1435.402	194.491	-174.267	1371.002	231.225	-341.573	1491.446	39.587	-214.093	1259.059	74.409	-337.865
	73	0.69167	1396.999	625.969	-263.395	1400.210	636.400	-207.398	1404.447	639.977	-324.712	1450.059	341.881	-215.122	1456.012	342.901	-340.279	1402.134	54.840	-215.561	1253.386	148.297	-322.606	1445.921	700.538	-262.580	1442.679	697.802	-172.829	1449.163	703.275	-352.331	1307.753	717.539	-221.938	1312.989	715.523	-307.383	1447.218	340.197	-169.240	1447.956	343.981	-387.586	1438.545	343.609	-255.069	1483.342	334.598	-306.920	1401.025	54.974	-182.080	1238.885	161.021	-348.761	1404.612	55.676	-242.830	1259.783	149.329	-287.908	1375.558	1038.582	-243.189	1464.711	961.337	-205.424	1462.699	968.440	-293.845	1450.004	977.917	-240.570	1483.829	841.197	-257.445	1553.798	447.498	-229.208	1493.817	434.381	-455.079	1476.530	488.171	-178.212	1498.220	484.513	-370.665	1474.336	399.149	-181.475	1513.956	401.218	-360.421	1445.348	125.287	-117.265	1393.770	148.819	-338.293	1436.730	194.302	-174.279	1391.359	232.144	-342.314	1491.484	39.524	-214.092	1284.652	73.210	-338.575
	74	0.70000	1405.241	626.897	-263.048	1408.329	637.120	-206.830	1412.923	641.110	-324.117	1452.909	341.669	-214.880	1472.283	345.144	-340.966	1402.453	54.992	-215.559	1276.743	144.860	-322.249	1454.223	701.441	-261.646	1450.710	698.389	-171.936	1457.737	704.492	-351.355	1315.926	718.393	-221.965	1321.765	716.563	-307.285	1449.815	339.952	-169.016	1464.708	346.323	-388.350	1442.011	343.188	-254.646	1499.970	337.479	-308.339	1401.229	55.128	-182.081	1261.541	157.282	-348.150	1404.815	55.862	-242.881	1283.209	146.102	-287.474	1384.331	1039.414	-242.429	1473.627	962.104	-205.378	1471.025	969.062	-293.740	1458.713	978.602	-240.393	1492.210	841.849	-257.304	1558.198	445.287	-228.209	1509.352	438.328	-455.629	1481.397	487.203	-177.639	1511.086	488.231	-371.048	1478.172	398.391	-180.909	1529.268	405.253	-361.029	1445.926	125.046	-117.152	1416.480	149.730	-339.529	1438.107	194.159	-174.264	1411.943	233.149	-343.267	1491.511	39.473	-214.076	1310.855	71.622	-339.205
	75	0.70833	1413.417	627.632	-262.642	1416.489	637.697	-206.254	1421.307	642.000	-323.521	1455.742	341.442	-214.672	1488.269	347.298	-341.500	1402.764	55.162	-215.563	1300.555	140.904	-322.083	1462.484	702.166	-260.810	1458.801	698.876	-171.150	1466.168	705.455	-350.470	1324.070	719.061	-221.998	1330.467	717.359	-307.169	1452.432	339.700	-168.825	1481.227	348.593	-388.963	1443.562	343.724	-255.065	1515.395	340.725	-308.823	1401.446	55.302	-182.090	1284.706	152.899	-347.796	1404.891	56.062	-242.855	1307.034	142.344	-287.263	1393.191	1040.041	-241.783	1482.527	962.637	-205.335	1479.374	969.513	-293.617	1467.420	979.120	-240.263	1500.546	842.296	-257.232	1562.642	443.093	-227.347	1524.733	442.179	-455.923	1486.472	486.470	-177.282	1523.915	491.769	-371.237	1480.635	397.489	-180.845	1543.951	409.250	-360.944	1446.556	124.813	-117.058	1439.566	150.609	-340.495	1439.539	194.028	-174.168	1432.413	234.105	-344.071	1491.528	39.436	-214.047	1337.671	69.713	-339.786
	76	0.71667	1421.585	628.175	-262.232	1424.675	638.126	-205.702	1429.602	642.654	-322.956	1458.562	341.198	-214.496	1503.964	349.347	-341.872	1403.078	55.342	-215.579	1324.824	136.489	-322.103	1470.702	702.713	-260.092	1466.936	699.253	-170.484	1474.467	706.173	-349.699	1332.193	719.544	-222.028	1339.067	717.915	-307.051	1455.069	339.442	-168.663	1497.492	350.773	-389.412	1449.567	342.583	-253.193	1529.641	344.333	-308.399	1401.675	55.488	-182.108	1308.400	147.934	-347.706	1404.892	56.279	-242.804	1331.494	138.102	-287.321	1402.111	1040.468	-241.173	1491.400	963.010	-205.307	1487.708	969.757	-293.518	1476.131	979.462	-240.192	1508.823	842.549	-257.105	1567.144	440.919	-226.624	1539.899	445.912	-455.945	1491.434	485.674	-176.870	1536.529	495.218	-371.204	1486.501	398.064	-179.589	1557.936	413.307	-360.169	1447.216	124.592	-116.971	1463.012	151.493	-341.144	1440.903	193.904	-174.046	1452.848	234.777	-344.544	1491.540	39.414	-214.007	1365.088	67.551	-340.348
	77	0.72500	1429.735	628.525	-261.878	1432.874	638.409	-205.207	1437.824	643.088	-322.455	1461.373	340.935	-214.353	1519.356	351.273	-342.077	1403.399	55.532	-215.608	1349.549	131.681	-322.301	1478.877	703.090	-259.506	1475.096	699.516	-169.944	1482.657	706.665	-349.068	1340.299	719.852	-222.053	1347.564	718.242	-306.937	1457.729	339.177	-168.531	1513.476	352.832	-389.690	1453.333	342.115	-252.401	1544.147	347.721	-307.928	1401.914	55.686	-182.141	1332.639	142.454	-347.880	1404.858	56.524	-242.731	1356.297	133.544	-287.552	1411.051	1040.758	-240.640	1500.278	963.216	-205.382	1496.056	969.806	-293.537	1484.854	979.619	-240.188	1517.071	842.613	-257.042	1571.697	438.757	-226.038	1554.784	449.498	-455.692	1496.379	484.873	-176.535	1548.788	498.581	-370.860	1490.685	397.740	-178.938	1571.839	417.318	-359.264	1447.894	124.388	-116.888	1486.784	152.420	-341.451	1442.135	193.785	-173.935	1473.407	235.184	-344.771	1491.558	39.406	-213.967	1393.086	65.213	-340.922
	78	0.73333	1437.855	628.691	-261.605	1441.077	638.553	-204.803	1445.998	643.326	-322.048	1464.176	340.654	-214.246	1534.428	353.051	-342.112	1403.723	55.733	-215.656	1374.728	126.543	-322.678	1487.018	703.311	-259.061	1483.260	699.667	-169.531	1490.775	706.956	-348.591	1348.395	719.995	-222.074	1355.961	718.351	-306.838	1460.406	338.910	-168.434	1529.145	354.738	-389.791	1454.694	342.511	-252.691	1558.915	350.785	-307.593	1402.161	55.899	-182.193	1357.434	136.537	-348.315	1405.039	56.747	-242.716	1381.369	128.663	-287.952	1420.016	1040.902	-240.215	1509.131	963.170	-205.501	1504.473	969.637	-293.663	1493.591	979.594	-240.255	1525.266	842.433	-257.065	1576.277	436.588	-225.586	1569.323	452.896	-455.173	1501.501	484.111	-176.340	1560.852	501.813	-370.288	1493.135	396.635	-178.898	1585.709	421.103	-358.405	1448.589	124.205	-116.814	1510.836	153.433	-341.421	1443.393	193.651	-173.836	1494.045	235.502	-344.851	1491.593	39.409	-213.936	1421.636	62.780	-341.544
